<?xml version="1.0" encoding="utf-8"?>
<!-- Generator: Adobe Illustrator 16.0.3, SVG Export Plug-In . SVG Version: 6.00 Build 0)  -->
<!DOCTYPE svg PUBLIC "-//W3C//DTD SVG 1.1//EN" "http://www.w3.org/Graphics/SVG/1.1/DTD/svg11.dtd">
<svg version="1.1" xmlns="http://www.w3.org/2000/svg" xmlns:xlink="http://www.w3.org/1999/xlink" x="0px" y="0px" width="200px"
	 height="100px" viewBox="0 0 200 100" enable-background="new 0 0 200 100" xml:space="preserve">
<g id="Layer_1">
	<path fill="#9E9D9D" d="M0,86.831c0,0,45.127,10.039,58.025,8.603c7.166,0,80.096-39.062,127.96-51.377
		c0,0,6.595-2.018,14.015,4.173v-7.982c0.7,0.326,0-3.011-8.694-0.977C151.374,48.613,81.561,88.083,57.866,91.273
		C31.592,94.813,0,79.338,0,79.338"/>
</g>
<g id="Layer_2">
	<path fill="#4BB6E3" d="M200.204,41.47c0,0-45.128-10.884-58.025-9.327c-7.165,0-80.198,42.35-128.062,55.704
		c0,0-6.117,2.187-14.117-4.525v8.654c0-0.353,0.102,3.265,8.796,1.059c39.932-10.13,109.796-52.922,133.491-56.382
		c26.273-3.835,57.892,12.941,57.892,12.941"/>
</g>
</svg>
