<?xml version="1.0" encoding="utf-8"?>
<!-- Generator: Adobe Illustrator 16.0.3, SVG Export Plug-In . SVG Version: 6.00 Build 0)  -->
<!DOCTYPE svg PUBLIC "-//W3C//DTD SVG 1.1//EN" "http://www.w3.org/Graphics/SVG/1.1/DTD/svg11.dtd">
<svg version="1.1" id="Layer_1" xmlns="http://www.w3.org/2000/svg" xmlns:xlink="http://www.w3.org/1999/xlink" x="0px" y="0px"
	 width="200px" height="100px" viewBox="0 0 200 100" enable-background="new 0 0 200 100" xml:space="preserve">
<g id="Layer_5">
	<path fill="none" stroke="#4BB6E3" stroke-width="2" stroke-miterlimit="10" d="M73.102,48.411
		c0-19.669,25.934-36.854,25.934-48.411c0,11.598,25.934,31.302,25.934,48.411c0,17.104-25.934,23.051-25.934,23.051
		S73.102,68.074,73.102,48.411z"/>
</g>
<g id="Layer_2">
	<path fill="none" stroke="#4BB6E3" stroke-width="2" stroke-miterlimit="10" d="M65.726,74.203
		c-13.906-13.906-7.718-44.395-15.893-52.569c8.201,8.202,40.473,3.8,52.569,15.894c12.095,12.095-2.037,34.637-2.037,34.637
		S79.631,88.111,65.726,74.203z"/>
</g>
<g id="Layer_3">
	<path fill="none" stroke="#4BB6E3" stroke-width="2" stroke-miterlimit="10" d="M98.866,39.124
		c13.906-13.908,44.394-7.721,52.569-15.893c-8.2,8.201-3.798,40.472-15.893,52.569c-12.096,12.096-34.638-2.037-34.638-2.037
		S84.957,53.03,98.866,39.124z"/>
</g>
<g id="Layer_4">
	<path fill="none" stroke="#4BB6E3" stroke-width="2" stroke-miterlimit="10" d="M72.429,98.37
		c-23.229,0-43.527-25.934-57.179-25.934c13.698,0,36.975-25.933,57.181-25.935c20.204,0,27.229,25.933,27.229,25.933
		S95.658,98.37,72.429,98.37z"/>
</g>
<g id="Layer_6">
	<path fill="none" stroke="#4BB6E3" stroke-width="2" stroke-miterlimit="10" d="M128.657,46.499
		c23.229,0,43.528,25.933,57.179,25.933c-13.699,0-36.974,25.937-57.181,25.937c-20.203,0-27.228-25.934-27.228-25.934
		S105.429,46.499,128.657,46.499z"/>
</g>
<g id="Layer_7">
</g>
<g id="Layer_8">
</g>
</svg>
