<?xml version="1.0" encoding="utf-8"?>
<!-- Generator: Adobe Illustrator 16.0.3, SVG Export Plug-In . SVG Version: 6.00 Build 0)  -->
<!DOCTYPE svg PUBLIC "-//W3C//DTD SVG 1.1//EN" "http://www.w3.org/Graphics/SVG/1.1/DTD/svg11.dtd">
<svg version="1.1" id="Layer_1" xmlns="http://www.w3.org/2000/svg" xmlns:xlink="http://www.w3.org/1999/xlink" x="0px" y="0px"
	 width="200px" height="100px" viewBox="0 0 200 100" enable-background="new 0 0 200 100" xml:space="preserve">
<g id="Layer_5">
	<path fill="none" stroke="#4BB6E3" stroke-width="2" stroke-miterlimit="10" d="M29.988,31.549
		c0-10.11,13.331-18.944,13.331-24.884c0,5.962,13.331,16.09,13.331,24.884c0,8.792-13.331,11.85-13.331,11.85
		S29.988,41.657,29.988,31.549z"/>
</g>
<g id="Layer_2">
	<path fill="none" stroke="#4BB6E3" stroke-width="2" stroke-miterlimit="10" d="M26.196,44.808
		c-7.148-7.148-3.967-22.82-8.169-27.022c4.216,4.216,20.805,1.953,27.022,8.17S44.002,43.76,44.002,43.76
		S33.344,51.957,26.196,44.808z"/>
</g>
<g id="Layer_3">
	<path fill="none" stroke="#4BB6E3" stroke-width="2" stroke-miterlimit="10" d="M43.231,26.776
		c7.148-7.149,22.82-3.969,27.022-8.169c-4.216,4.215-1.953,20.803-8.169,27.022c-6.218,6.217-17.805-1.047-17.805-1.047
		S36.082,33.924,43.231,26.776z"/>
</g>
<g id="Layer_4">
	<path fill="none" stroke="#4BB6E3" stroke-width="2" stroke-miterlimit="10" d="M29.642,57.23C17.701,57.23,7.267,43.9,0.25,43.9
		c7.042,0,19.006-13.331,29.393-13.332c10.385,0,13.996,13.331,13.996,13.331S41.582,57.23,29.642,57.23z"/>
</g>
<g id="Layer_6">
	<path fill="none" stroke="#4BB6E3" stroke-width="2" stroke-miterlimit="10" d="M58.545,30.567
		c11.94,0,22.375,13.331,29.392,13.331c-7.042,0-19.006,13.332-29.393,13.332c-10.385,0-13.996-13.331-13.996-13.331
		S46.604,30.567,58.545,30.567z"/>
	<rect x="85.942" y="29.597" fill="none" width="120.683" height="32.085"/>
	<text transform="matrix(1 0 0 1 85.9429 57.2813)" fill="#9E9D9D" font-family="'ArialRoundedMTBold'" font-size="38.0269">M.A.T.</text>
	<rect x="33.392" y="60.837" fill="none" width="148.015" height="21.521"/>
	<text transform="matrix(1 0 0 1 33.3921 75.4395)" fill="#4BB6E3" font-family="'BrushScriptMT'" font-size="25.3512">Perfect cleaning</text>
</g>
<g id="Layer_7">
</g>
<g id="Layer_8">
</g>
</svg>
